REM DIRINDEX 1\2\3,1\2\4,1\2\5,1\2\6
REM DIRNAME cjc157,folder01,folder02,folder03,folder04,folder05
TITLE ""
FILE "027 027.mp3" MP3
  TRACK 01 AUDIO
    TITLE "0:"
    INDEX 01 00:00:00
  TRACK 02 AUDIO
    TITLE "3:cjc157_1006"
    INDEX 01 00:00:13
  TRACK 03 AUDIO
    TITLE "0:"
    INDEX 01 00:01:66
  TRACK 04 AUDIO
    TITLE "4:cjc157_1007"
    INDEX 01 00:02:36
  TRACK 05 AUDIO
    TITLE "0:"
    INDEX 01 00:03:45
  TRACK 06 AUDIO
    TITLE "5:cjc157_1008"
    INDEX 01 00:04:17
  TRACK 07 AUDIO
    TITLE "0:"
    INDEX 01 00:07:64
  TRACK 08 AUDIO
    TITLE "5:cjc157_1009"
    INDEX 01 00:08:32
  TRACK 09 AUDIO
    TITLE "0:"
    INDEX 01 00:10:61
  TRACK 10 AUDIO
    TITLE "3:cjc157_1010"
    INDEX 01 00:11:27
  TRACK 11 AUDIO
    TITLE "0:"
    INDEX 01 00:13:00
  TRACK 12 AUDIO
    TITLE "4:cjc157_1011"
    INDEX 01 00:13:45
  TRACK 13 AUDIO
    TITLE "0:"
    INDEX 01 00:15:01
  TRACK 14 AUDIO
    TITLE "5:cjc157_1012"
    INDEX 01 00:15:46
  TRACK 15 AUDIO
    TITLE "0:"
    INDEX 01 00:19:42
  TRACK 16 AUDIO
    TITLE "5:cjc157_1013"
    INDEX 01 00:20:18
  TRACK 17 AUDIO
    TITLE "0:"
    INDEX 01 00:24:00
  TRACK 18 AUDIO
    TITLE "3:cjc157_1014"
    INDEX 01 00:24:51
  TRACK 19 AUDIO
    TITLE "0:"
    INDEX 01 00:26:28
  TRACK 20 AUDIO
    TITLE "4:cjc157_1015"
    INDEX 01 00:26:73
  TRACK 21 AUDIO
    TITLE "0:"
    INDEX 01 00:28:19
  TRACK 22 AUDIO
    TITLE "5:cjc157_1016"
    INDEX 01 00:28:66
  TRACK 23 AUDIO
    TITLE "0:"
    INDEX 01 00:32:33
  TRACK 24 AUDIO
    TITLE "5:cjc157_1017"
    INDEX 01 00:33:03
  TRACK 25 AUDIO
    TITLE "0:"
    INDEX 01 00:36:33
  TRACK 26 AUDIO
    TITLE "3:cjc157_1018"
    INDEX 01 00:37:05
  TRACK 27 AUDIO
    TITLE "0:"
    INDEX 01 00:38:33
  TRACK 28 AUDIO
    TITLE "4:cjc157_1019"
    INDEX 01 00:39:05
  TRACK 29 AUDIO
    TITLE "0:"
    INDEX 01 00:40:26
  TRACK 30 AUDIO
    TITLE "5:cjc157_1020"
    INDEX 01 00:40:73
  TRACK 31 AUDIO
    TITLE "0:"
    INDEX 01 00:45:02
  TRACK 32 AUDIO
    TITLE "5:cjc157_1021"
    INDEX 01 00:45:47
  TRACK 33 AUDIO
    TITLE "0:"
    INDEX 01 00:48:08
  TRACK 34 AUDIO
    TITLE "3:cjc157_1022"
    INDEX 01 00:48:51
  TRACK 35 AUDIO
    TITLE "0:"
    INDEX 01 00:50:21
  TRACK 36 AUDIO
    TITLE "4:cjc157_1023"
    INDEX 01 00:50:64
  TRACK 37 AUDIO
    TITLE "0:"
    INDEX 01 00:51:71
  TRACK 38 AUDIO
    TITLE "5:cjc157_1024"
    INDEX 01 00:52:41
  TRACK 39 AUDIO
    TITLE "0:"
    INDEX 01 00:56:24
  TRACK 40 AUDIO
    TITLE "5:cjc157_1025"
    INDEX 01 00:56:69
  TRACK 41 AUDIO
    TITLE "0:"
    INDEX 01 01:00:27
  TRACK 42 AUDIO
    TITLE "5:cjc157_1026"
    INDEX 01 01:00:72
  TRACK 43 AUDIO
    TITLE "0:"
    INDEX 01 01:03:12
  TRACK 44 AUDIO
    TITLE "3:cjc157_1027"
    INDEX 01 01:03:59
  TRACK 45 AUDIO
    TITLE "0:"
    INDEX 01 01:05:30
  TRACK 46 AUDIO
    TITLE "4:cjc157_1028"
    INDEX 01 01:06:02
  TRACK 47 AUDIO
    TITLE "0:"
    INDEX 01 01:07:17
  TRACK 48 AUDIO
    TITLE "5:cjc157_1029"
    INDEX 01 01:07:64
  TRACK 49 AUDIO
    TITLE "0:"
    INDEX 01 01:10:51
  TRACK 50 AUDIO
    TITLE "5:cjc157_1030"
    INDEX 01 01:11:21
  TRACK 51 AUDIO
    TITLE "0:"
    INDEX 01 01:13:32
  TRACK 52 AUDIO
    TITLE "5:cjc157_1031"
    INDEX 01 01:14:00
  TRACK 53 AUDIO
    TITLE "0:"
    INDEX 01 01:17:41
  TRACK 54 AUDIO
    TITLE "3:cjc157_1032"
    INDEX 01 01:18:17
  TRACK 55 AUDIO
    TITLE "0:"
    INDEX 01 01:19:48
  TRACK 56 AUDIO
    TITLE "4:cjc157_1033"
    INDEX 01 01:20:20
  TRACK 57 AUDIO
    TITLE "0:"
    INDEX 01 01:21:39
  TRACK 58 AUDIO
    TITLE "5:cjc157_1034"
    INDEX 01 01:22:05
  TRACK 59 AUDIO
    TITLE "0:"
    INDEX 01 01:24:43
  TRACK 60 AUDIO
    TITLE "5:cjc157_1035"
    INDEX 01 01:25:13
  TRACK 61 AUDIO
    TITLE "0:"
    INDEX 01 01:27:14
  TRACK 62 AUDIO
    TITLE "5:cjc157_1036"
    INDEX 01 01:27:61
  TRACK 63 AUDIO
    TITLE "0:"
    INDEX 01 01:29:50
  TRACK 64 AUDIO
    TITLE "3:cjc157_1037"
    INDEX 01 01:30:20
  TRACK 65 AUDIO
    TITLE "0:"
    INDEX 01 01:31:69
  TRACK 66 AUDIO
    TITLE "4:cjc157_1038"
    INDEX 01 01:32:49
  TRACK 67 AUDIO
    TITLE "0:"
    INDEX 01 01:33:48
  TRACK 68 AUDIO
    TITLE "5:cjc157_1039"
    INDEX 01 01:34:20
  TRACK 69 AUDIO
    TITLE "0:"
    INDEX 01 01:37:32
  TRACK 70 AUDIO
    TITLE "5:cjc157_1040"
    INDEX 01 01:38:02
  TRACK 71 AUDIO
    TITLE "0:"
    INDEX 01 01:41:05
  TRACK 72 AUDIO
    TITLE "5:cjc157_1041"
    INDEX 01 01:41:52
  TRACK 73 AUDIO
    TITLE "0:"
    INDEX 01 01:43:43
  TRACK 74 AUDIO
    TITLE "3:cjc157_1042"
    INDEX 01 01:44:15
  TRACK 75 AUDIO
    TITLE "0:"
    INDEX 01 01:45:36
  TRACK 76 AUDIO
    TITLE "4:cjc157_1043"
    INDEX 01 01:46:06
  TRACK 77 AUDIO
    TITLE "0:"
    INDEX 01 01:47:19
  TRACK 78 AUDIO
    TITLE "5:cjc157_1044"
    INDEX 01 01:47:62
  TRACK 79 AUDIO
    TITLE "0:"
    INDEX 01 01:50:31
  TRACK 80 AUDIO
    TITLE "5:cjc157_1045"
    INDEX 01 01:50:74
  TRACK 81 AUDIO
    TITLE "0:"
    INDEX 01 01:53:41
  TRACK 82 AUDIO
    TITLE "3:cjc157_1046"
    INDEX 01 01:54:09
  TRACK 83 AUDIO
    TITLE "0:"
    INDEX 01 01:55:24
  TRACK 84 AUDIO
    TITLE "4:cjc157_1047"
    INDEX 01 01:55:69
  TRACK 85 AUDIO
    TITLE "0:"
    INDEX 01 01:56:73
  TRACK 86 AUDIO
    TITLE "5:cjc157_1048"
    INDEX 01 01:57:45
  TRACK 87 AUDIO
    TITLE "0:"
    INDEX 01 01:59:71
